<svg width="24" height="24" viewBox="0 0 24 24" fill="none" xmlns="http://www.w3.org/2000/svg">
<path d="M13 17C13 17.5523 12.5523 18 12 18C11.4477 18 11 17.5523 11 17C11 16.4477 11.4477 16 12 16C12.5523 16 13 16.4477 13 17Z" fill="white"/>
<path fill-rule="evenodd" clip-rule="evenodd" d="M12 1C12.3632 1 12.6978 1.19689 12.8742 1.51436L22.8742 19.5144C23.0462 19.8241 23.0416 20.2017 22.8619 20.5071C22.6822 20.8125 22.3543 21 22 21H2C1.64568 21 1.31781 20.8125 1.13813 20.5071C0.958444 20.2017 0.95377 19.8241 1.12584 19.5144L11.1258 1.51436C11.3022 1.19689 11.6368 1 12 1ZM3.69951 19H20.3005L12 4.05913L3.69951 19ZM12 8C12.5523 8 13 8.44772 13 9V13C13 13.5523 12.5523 14 12 14C11.4477 14 11 13.5523 11 13V9C11 8.44772 11.4477 8 12 8Z" fill="white"/>
</svg>
